<svg version="1.0" xmlns="http://www.w3.org/2000/svg"
 width="512.000000pt" height="512.000000pt" viewBox="0 0 512.000000 512.000000"
 preserveAspectRatio="xMidYMid meet">
<g transform="translate(0.000000,512.000000) scale(0.100000,-0.100000)"
fill="#000000" stroke="none">
<path d="M2330 5110 c-494 -48 -950 -230 -1350 -538 -195 -150 -448 -432 -594
-662 -63 -99 -186 -351 -230 -471 -49 -134 -102 -340 -128 -499 -31 -195 -31
-565 0 -760 45 -276 116 -498 237 -745 132 -269 269 -460 489 -681 221 -220
412 -357 681 -489 247 -121 469 -192 745 -237 195 -31 565 -31 760 0 276 45
498 116 745 237 269 132 460 269 681 489 220 221 357 412 489 681 88 179 132
296 180 476 63 240 78 371 78 649 0 278 -15 409 -78 649 -48 180 -92 297 -180
476 -132 269 -269 460 -489 681 -221 220 -412 357 -681 489 -246 121 -474 193
-740 235 -147 23 -475 34 -615 20z m546 -355 c385 -57 752 -214 1057 -454 l69
-54 -719 -719 c-395 -395 -722 -718 -728 -718 -6 0 -138 127 -293 283 l-283
284 64 85 c262 348 409 752 433 1197 l7 124 143 -6 c78 -4 191 -13 250 -22z
m-736 -32 c0 -58 -24 -252 -40 -332 -28 -132 -90 -312 -150 -433 -47 -93 -189
-320 -208 -332 -12 -7 -626 610 -618 622 3 5 48 41 99 80 237 179 503 307 792
382 133 35 125 34 125 13z m-951 -1037 l313 -313 -100 -75 c-200 -151 -433
-260 -670 -313 -92 -21 -258 -45 -309 -45 -53 0 -54 3 -14 160 76 300 219 590
410 833 29 37 54 67 54 67 1 0 143 -141 316 -314z m3112 247 c192 -244 341
-548 412 -843 26 -106 51 -264 62 -397 l6 -73 -168 0 c-178 0 -317 -15 -473
-50 -291 -65 -612 -215 -837 -391 -35 -27 -66 -49 -70 -49 -5 0 -105 97 -223
215 l-215 215 720 720 c396 396 723 720 727 720 3 0 30 -30 59 -67z m-2274
-1085 l283 -283 -717 -717 c-395 -395 -721 -718 -724 -718 -4 0 -38 42 -77 93
-275 364 -423 778 -448 1250 l-7 127 71 0 c163 0 432 50 627 117 207 71 478
223 635 356 36 31 67 56 70 56 3 1 132 -126 287 -281z m889 -1052 c-298 -382
-456 -833 -456 -1305 l0 -149 -47 5 c-385 34 -705 136 -1002 317 -93 56 -275
189 -287 208 -4 6 317 334 712 729 l719 719 216 -216 217 -216 -72 -92z m1839
442 c-61 -388 -218 -751 -454 -1051 l-53 -68 -382 378 c-209 208 -381 381
-381 386 0 19 193 143 320 206 270 134 495 187 803 190 l154 1 -7 -42z m-1137
-981 l384 -384 -69 -54 c-305 -240 -728 -420 -1073 -456 l-60 -6 0 129 c1 340
101 676 287 963 55 85 134 189 143 190 3 1 178 -172 388 -382z"/>
</g>
</svg>
